<svg width="224" height="42" viewBox="0 0 224 42" fill="none" xmlns="http://www.w3.org/2000/svg">
<rect width="224" height="42" rx="21" fill="white"/>
<path d="M24.478 25.5V18.416L21.552 23.792H20.628L17.688 18.416V25.5H16.12V15.56H17.8L21.09 21.636L24.38 15.56H26.06V25.5H24.478ZM27.3516 23.358C27.3516 22.8913 27.4823 22.4853 27.7436 22.14C28.0143 21.7853 28.3829 21.5147 28.8496 21.328C29.3163 21.132 29.8576 21.034 30.4736 21.034C30.8003 21.034 31.1316 21.0573 31.4676 21.104C31.8129 21.1507 32.1163 21.2253 32.3776 21.328V20.866C32.3776 20.3527 32.2236 19.9513 31.9156 19.662C31.6076 19.3727 31.1643 19.228 30.5856 19.228C30.1749 19.228 29.7876 19.3027 29.4236 19.452C29.0596 19.592 28.6723 19.7927 28.2616 20.054L27.7436 19.018C28.2289 18.6913 28.7143 18.4487 29.1996 18.29C29.6943 18.1313 30.2123 18.052 30.7536 18.052C31.7336 18.052 32.5036 18.3133 33.0636 18.836C33.6329 19.3493 33.9176 20.082 33.9176 21.034V23.764C33.9176 23.9413 33.9456 24.0673 34.0016 24.142C34.0669 24.2167 34.1743 24.2587 34.3236 24.268V25.5C34.1836 25.528 34.0576 25.5467 33.9456 25.556C33.8336 25.5653 33.7403 25.57 33.6656 25.57C33.3389 25.57 33.0916 25.4907 32.9236 25.332C32.7556 25.1733 32.6576 24.9867 32.6296 24.772L32.5876 24.352C32.2703 24.7627 31.8643 25.08 31.3696 25.304C30.8749 25.528 30.3756 25.64 29.8716 25.64C29.3863 25.64 28.9523 25.542 28.5696 25.346C28.1869 25.1407 27.8883 24.8653 27.6736 24.52C27.4589 24.1747 27.3516 23.7873 27.3516 23.358ZM32.0136 23.806C32.1256 23.6847 32.2143 23.5633 32.2796 23.442C32.3449 23.3207 32.3776 23.2133 32.3776 23.12V22.28C32.1163 22.1773 31.8409 22.1027 31.5516 22.056C31.2623 22 30.9776 21.972 30.6976 21.972C30.1376 21.972 29.6803 22.084 29.3256 22.308C28.9803 22.532 28.8076 22.84 28.8076 23.232C28.8076 23.4467 28.8636 23.652 28.9756 23.848C29.0969 24.044 29.2649 24.2027 29.4796 24.324C29.7036 24.4453 29.9789 24.506 30.3056 24.506C30.6416 24.506 30.9636 24.4407 31.2716 24.31C31.5796 24.1793 31.8269 24.0113 32.0136 23.806ZM35.184 21.846C35.184 21.146 35.324 20.5113 35.604 19.942C35.8933 19.3633 36.2853 18.906 36.78 18.57C37.2746 18.2247 37.844 18.052 38.488 18.052C39.048 18.052 39.552 18.1967 40 18.486C40.4573 18.7753 40.812 19.1347 41.064 19.564V15.28H42.604V23.764C42.604 23.9413 42.6366 24.0673 42.702 24.142C42.7673 24.2167 42.8746 24.2587 43.024 24.268V25.5C42.7346 25.5467 42.5106 25.57 42.352 25.57C42.0626 25.57 41.8153 25.486 41.61 25.318C41.414 25.15 41.3113 24.9493 41.302 24.716L41.288 24.17C41.008 24.6367 40.63 25.0007 40.154 25.262C39.678 25.514 39.1833 25.64 38.67 25.64C38.166 25.64 37.6993 25.542 37.27 25.346C36.85 25.15 36.4813 24.8747 36.164 24.52C35.856 24.1653 35.6133 23.7593 35.436 23.302C35.268 22.8447 35.184 22.3593 35.184 21.846ZM41.064 22.868V20.95C40.9613 20.6513 40.7933 20.3853 40.56 20.152C40.336 19.9093 40.0793 19.718 39.79 19.578C39.51 19.438 39.23 19.368 38.95 19.368C38.6233 19.368 38.3246 19.438 38.054 19.578C37.7926 19.718 37.564 19.9047 37.368 20.138C37.1813 20.3713 37.0366 20.6373 36.934 20.936C36.8313 21.2347 36.78 21.5473 36.78 21.874C36.78 22.21 36.836 22.5273 36.948 22.826C37.06 23.1153 37.2186 23.3767 37.424 23.61C37.6386 23.834 37.8813 24.0113 38.152 24.142C38.432 24.2633 38.7353 24.324 39.062 24.324C39.2673 24.324 39.4726 24.2867 39.678 24.212C39.8926 24.1373 40.0933 24.0347 40.28 23.904C40.476 23.7733 40.6393 23.6193 40.77 23.442C40.91 23.2647 41.008 23.0733 41.064 22.868ZM47.738 25.64C47.1687 25.64 46.6507 25.542 46.184 25.346C45.7267 25.1407 45.33 24.8653 44.994 24.52C44.658 24.1653 44.3967 23.764 44.21 23.316C44.0327 22.8587 43.944 22.3733 43.944 21.86C43.944 21.1693 44.1027 20.5393 44.42 19.97C44.7373 19.3913 45.1807 18.9293 45.75 18.584C46.3193 18.2293 46.9867 18.052 47.752 18.052C48.5173 18.052 49.1753 18.2293 49.726 18.584C50.286 18.9293 50.72 19.3867 51.028 19.956C51.336 20.5253 51.49 21.1367 51.49 21.79C51.49 21.902 51.4853 22.0093 51.476 22.112C51.4667 22.2053 51.4573 22.2847 51.448 22.35H45.582C45.61 22.7793 45.7267 23.1573 45.932 23.484C46.1467 23.8013 46.4173 24.0533 46.744 24.24C47.0707 24.4173 47.4207 24.506 47.794 24.506C48.2047 24.506 48.592 24.4033 48.956 24.198C49.3293 23.9927 49.5813 23.722 49.712 23.386L51.028 23.764C50.8693 24.1187 50.6267 24.4407 50.3 24.73C49.9827 25.01 49.6047 25.234 49.166 25.402C48.7273 25.5607 48.2513 25.64 47.738 25.64ZM45.54 21.328H49.964C49.936 20.908 49.8147 20.5393 49.6 20.222C49.3947 19.8953 49.1287 19.6433 48.802 19.466C48.4847 19.2793 48.13 19.186 47.738 19.186C47.3553 19.186 47.0007 19.2793 46.674 19.466C46.3567 19.6433 46.0953 19.8953 45.89 20.222C45.6847 20.5393 45.568 20.908 45.54 21.328ZM64.6567 18.178H66.1267L63.0467 25.5H61.7307L60.4147 22.196L59.0987 25.5H57.7827L54.6887 18.178H56.1587L58.5107 24.002L59.5467 21.3L58.2867 18.192H59.5887L60.4147 20.474L61.2267 18.192H62.5287L61.2827 21.3L62.3187 24.002L64.6567 18.178ZM67.0098 25.5V18.178H68.5498V25.5H67.0098ZM67.0098 16.974V15.28H68.5498V16.974H67.0098ZM74.3344 25.122C74.2037 25.1873 74.0404 25.2573 73.8444 25.332C73.6484 25.4067 73.4244 25.472 73.1724 25.528C72.9297 25.584 72.6777 25.612 72.4164 25.612C72.0991 25.612 71.8051 25.556 71.5344 25.444C71.2637 25.332 71.0444 25.1547 70.8764 24.912C70.7177 24.66 70.6384 24.338 70.6384 23.946V19.368H69.6724V18.178H70.6384V15.77H72.1784V18.178H73.7744V19.368H72.1784V23.456C72.1971 23.708 72.2764 23.8947 72.4164 24.016C72.5657 24.1373 72.7477 24.198 72.9624 24.198C73.1771 24.198 73.3824 24.1607 73.5784 24.086C73.7744 24.0113 73.9191 23.9507 74.0124 23.904L74.3344 25.122ZM81.827 25.5H80.287V21.398C80.287 20.7353 80.1657 20.2407 79.923 19.914C79.6804 19.5873 79.3397 19.424 78.901 19.424C78.6304 19.424 78.3504 19.4987 78.061 19.648C77.7717 19.7973 77.515 20.0027 77.291 20.264C77.067 20.516 76.9037 20.81 76.801 21.146V25.5H75.261V15.28H76.801V19.648C77.081 19.1533 77.4637 18.766 77.949 18.486C78.4344 18.1967 78.957 18.052 79.517 18.052C79.9744 18.052 80.3524 18.1313 80.651 18.29C80.9497 18.4487 81.183 18.668 81.351 18.948C81.5284 19.2187 81.6497 19.536 81.715 19.9C81.7897 20.2547 81.827 20.6327 81.827 21.034V25.5ZM86.8075 15.28H88.3475V23.386C88.3475 23.7593 88.4035 23.9973 88.5155 24.1C88.6275 24.2027 88.7675 24.254 88.9355 24.254C89.1222 24.254 89.2949 24.2353 89.4535 24.198C89.6215 24.1607 89.7662 24.114 89.8875 24.058L90.1115 25.276C89.8875 25.3693 89.6215 25.4487 89.3135 25.514C89.0055 25.5793 88.7302 25.612 88.4875 25.612C87.9649 25.612 87.5542 25.4673 87.2555 25.178C86.9569 24.8793 86.8075 24.4687 86.8075 23.946V15.28ZM94.1545 25.64C93.5758 25.64 93.0578 25.542 92.6005 25.346C92.1431 25.1407 91.7465 24.8607 91.4105 24.506C91.0838 24.1513 90.8318 23.75 90.6545 23.302C90.4771 22.8447 90.3885 22.3593 90.3885 21.846C90.3885 21.3327 90.4771 20.8473 90.6545 20.39C90.8318 19.9327 91.0838 19.5313 91.4105 19.186C91.7465 18.8313 92.1431 18.556 92.6005 18.36C93.0671 18.1547 93.5851 18.052 94.1545 18.052C94.7238 18.052 95.2371 18.1547 95.6945 18.36C96.1611 18.556 96.5578 18.8313 96.8845 19.186C97.2205 19.5313 97.4771 19.9327 97.6545 20.39C97.8318 20.8473 97.9205 21.3327 97.9205 21.846C97.9205 22.3593 97.8318 22.8447 97.6545 23.302C97.4771 23.75 97.2205 24.1513 96.8845 24.506C96.5578 24.8607 96.1611 25.1407 95.6945 25.346C95.2371 25.542 94.7238 25.64 94.1545 25.64ZM91.9705 21.86C91.9705 22.3267 92.0685 22.7467 92.2645 23.12C92.4605 23.4933 92.7218 23.7873 93.0485 24.002C93.3751 24.2167 93.7438 24.324 94.1545 24.324C94.5558 24.324 94.9198 24.2167 95.2465 24.002C95.5825 23.778 95.8485 23.4793 96.0445 23.106C96.2405 22.7233 96.3385 22.3033 96.3385 21.846C96.3385 21.3793 96.2405 20.9593 96.0445 20.586C95.8485 20.2127 95.5825 19.9187 95.2465 19.704C94.9198 19.48 94.5558 19.368 94.1545 19.368C93.7438 19.368 93.3751 19.48 93.0485 19.704C92.7218 19.928 92.4605 20.2267 92.2645 20.6C92.0685 20.964 91.9705 21.384 91.9705 21.86ZM100.944 25.5L98.1582 18.178H99.7542L101.84 24.072L103.926 18.178H105.41L102.624 25.5H100.944ZM109.447 25.64C108.878 25.64 108.36 25.542 107.893 25.346C107.436 25.1407 107.039 24.8653 106.703 24.52C106.367 24.1653 106.106 23.764 105.919 23.316C105.742 22.8587 105.653 22.3733 105.653 21.86C105.653 21.1693 105.812 20.5393 106.129 19.97C106.447 19.3913 106.89 18.9293 107.459 18.584C108.029 18.2293 108.696 18.052 109.461 18.052C110.227 18.052 110.885 18.2293 111.435 18.584C111.995 18.9293 112.429 19.3867 112.737 19.956C113.045 20.5253 113.199 21.1367 113.199 21.79C113.199 21.902 113.195 22.0093 113.185 22.112C113.176 22.2053 113.167 22.2847 113.157 22.35H107.291C107.319 22.7793 107.436 23.1573 107.641 23.484C107.856 23.8013 108.127 24.0533 108.453 24.24C108.78 24.4173 109.13 24.506 109.503 24.506C109.914 24.506 110.301 24.4033 110.665 24.198C111.039 23.9927 111.291 23.722 111.421 23.386L112.737 23.764C112.579 24.1187 112.336 24.4407 112.009 24.73C111.692 25.01 111.314 25.234 110.875 25.402C110.437 25.5607 109.961 25.64 109.447 25.64ZM107.249 21.328H111.673C111.645 20.908 111.524 20.5393 111.309 20.222C111.104 19.8953 110.838 19.6433 110.511 19.466C110.194 19.2793 109.839 19.186 109.447 19.186C109.065 19.186 108.71 19.2793 108.383 19.466C108.066 19.6433 107.805 19.8953 107.599 20.222C107.394 20.5393 107.277 20.908 107.249 21.328ZM121.583 25.64C121.023 25.64 120.514 25.5093 120.057 25.248C119.609 24.9773 119.254 24.618 118.993 24.17V25.5H117.635V15.28H119.175V19.564C119.464 19.0973 119.823 18.7287 120.253 18.458C120.691 18.1873 121.205 18.052 121.793 18.052C122.278 18.052 122.721 18.1547 123.123 18.36C123.524 18.5653 123.865 18.8453 124.145 19.2C124.434 19.5547 124.653 19.9607 124.803 20.418C124.961 20.8753 125.041 21.3607 125.041 21.874C125.041 22.3873 124.952 22.8727 124.775 23.33C124.607 23.7873 124.364 24.1887 124.047 24.534C123.729 24.8793 123.361 25.15 122.941 25.346C122.53 25.542 122.077 25.64 121.583 25.64ZM121.177 24.324C121.513 24.324 121.821 24.2587 122.101 24.128C122.381 23.988 122.623 23.806 122.829 23.582C123.034 23.358 123.188 23.0967 123.291 22.798C123.403 22.4993 123.459 22.1913 123.459 21.874C123.459 21.4353 123.365 21.0247 123.179 20.642C123.001 20.2593 122.749 19.9513 122.423 19.718C122.096 19.4847 121.718 19.368 121.289 19.368C120.981 19.368 120.691 19.4427 120.421 19.592C120.15 19.732 119.907 19.9233 119.693 20.166C119.487 20.3993 119.315 20.6607 119.175 20.95V22.882C119.231 23.0967 119.329 23.2927 119.469 23.47C119.609 23.638 119.772 23.7873 119.959 23.918C120.145 24.0393 120.346 24.1373 120.561 24.212C120.775 24.2867 120.981 24.324 121.177 24.324ZM126.291 27.222C126.431 27.2407 126.567 27.2593 126.697 27.278C126.837 27.306 126.949 27.32 127.033 27.32C127.192 27.32 127.327 27.2687 127.439 27.166C127.561 27.0727 127.682 26.8953 127.803 26.634C127.925 26.3727 128.074 25.9947 128.251 25.5L125.241 18.178H126.851L129.091 23.932L131.079 18.178H132.563L129.245 27.194C129.143 27.4647 128.993 27.712 128.797 27.936C128.601 28.1693 128.359 28.3513 128.069 28.482C127.78 28.6127 127.439 28.678 127.047 28.678C126.935 28.678 126.819 28.6687 126.697 28.65C126.576 28.6313 126.441 28.6033 126.291 28.566V27.222Z" fill="#2C3729"/>
<path d="M141.064 13.5944V28.0396H138.01V13.5944H141.064ZM143.577 13.5944H147.343L151.321 23.2997H151.491L155.469 13.5944H159.235V28.0396H156.273V18.6375H156.153L152.415 27.969H150.397L146.659 18.6022H146.539V28.0396H143.577V13.5944Z" fill="#2C3729"/>
<rect x="161.583" y="9.03955" width="47.1724" height="22.5338" rx="3.72414" fill="#2C3729"/>
<path d="M167.395 28.0396V13.5944H171.846C172.763 13.5944 173.548 13.7825 174.202 14.1587C174.86 14.5348 175.365 15.0497 175.718 15.7033C176.071 16.3569 176.247 17.1022 176.247 17.9392C176.247 18.7668 176.071 19.5074 175.718 20.161C175.365 20.8146 174.86 21.3319 174.202 21.7127C173.548 22.0889 172.765 22.277 171.853 22.277H168.016V21.4588H171.832C172.575 21.4588 173.209 21.3084 173.736 21.0074C174.263 20.7018 174.667 20.2856 174.949 19.759C175.231 19.2276 175.372 18.6211 175.372 17.9392C175.372 17.2527 175.231 16.6438 174.949 16.1124C174.667 15.5811 174.26 15.1649 173.729 14.864C173.202 14.5631 172.568 14.4126 171.825 14.4126H168.277V28.0396H167.395ZM179.634 28.0396V13.5944H184.085C184.997 13.5944 185.782 13.7731 186.441 14.1305C187.099 14.4878 187.605 14.9839 187.957 15.6187C188.31 16.2488 188.486 16.9823 188.486 17.8193C188.486 18.6469 188.31 19.3758 187.957 20.0058C187.605 20.6312 187.099 21.1203 186.441 21.4729C185.787 21.8256 185.004 22.0019 184.092 22.0019H180.107V21.1767H184.071C184.814 21.1767 185.449 21.038 185.975 20.7606C186.502 20.4831 186.906 20.0952 187.188 19.5968C187.471 19.0936 187.612 18.5011 187.612 17.8193C187.612 17.1328 187.471 16.5356 187.188 16.0278C186.906 15.5153 186.5 15.1179 185.968 14.8358C185.442 14.5537 184.807 14.4126 184.064 14.4126H180.516V28.0396H179.634ZM185.566 21.4941L189.121 28.0396H188.105L184.572 21.4941H185.566ZM203.499 20.817C203.499 22.3076 203.241 23.6101 202.723 24.7245C202.206 25.8342 201.487 26.6971 200.565 27.3131C199.648 27.929 198.59 28.237 197.391 28.237C196.187 28.237 195.125 27.929 194.203 27.3131C193.286 26.6924 192.569 25.8272 192.052 24.7174C191.534 23.603 191.276 22.3029 191.276 20.817C191.276 19.3264 191.534 18.0262 192.052 16.9165C192.574 15.8068 193.293 14.9439 194.21 14.3279C195.127 13.7073 196.187 13.3969 197.391 13.3969C198.59 13.3969 199.648 13.7049 200.565 14.3209C201.487 14.9369 202.206 15.8021 202.723 16.9165C203.241 18.0262 203.499 19.3264 203.499 20.817ZM202.639 20.817C202.639 19.4769 202.413 18.3154 201.962 17.3327C201.515 16.3499 200.897 15.5905 200.107 15.0544C199.317 14.5137 198.411 14.2433 197.391 14.2433C196.371 14.2433 195.465 14.5113 194.676 15.0474C193.886 15.5787 193.265 16.3381 192.813 17.3256C192.367 18.3084 192.143 19.4721 192.143 20.817C192.143 22.1477 192.364 23.3068 192.806 24.2943C193.253 25.277 193.871 26.0388 194.661 26.5795C195.451 27.1203 196.361 27.3906 197.391 27.3906C198.411 27.3906 199.317 27.1226 200.107 26.5866C200.897 26.0458 201.515 25.2841 201.962 24.3013C202.413 23.3185 202.639 22.1571 202.639 20.817Z" fill="white"/>
</svg>
