<svg width="199" height="46" viewBox="0 0 199 46" fill="none" xmlns="http://www.w3.org/2000/svg">
<path d="M45.8736 10.7907C46.0834 10.7907 46.2582 10.9602 46.2932 11.1298L46.6778 13.0962C47.6217 11.4688 49.23 10.4178 51.5025 10.4178C53.81 10.4517 55.6281 11.5027 56.5721 13.6048C57.6209 11.6722 59.4739 10.4178 61.9912 10.4178C65.4175 10.4517 67.7949 12.825 67.76 17.402L67.7949 26.0814C67.7949 26.2849 67.6551 26.4205 67.4453 26.4205H64.7182C64.5085 26.4205 64.3686 26.2849 64.3686 26.0814V17.8782C64.3686 14.9625 63.1449 13.7419 61.1521 13.7419C58.9145 13.7419 57.3412 15.6066 57.3063 19.0987V26.083C57.3063 26.2864 57.1664 26.422 56.9566 26.422H54.2645C54.0548 26.422 53.9149 26.2864 53.9149 26.083V17.8797C53.9149 14.9979 52.6912 13.7435 50.7334 13.7435C47.9714 13.7435 46.9225 16.5575 46.8542 18.7952V26.083C46.8542 26.2864 46.7143 26.422 46.5045 26.422H43.7775C43.5677 26.422 43.4279 26.2864 43.4279 26.083V11.1329C43.4279 10.9294 43.5677 10.7938 43.7775 10.7938H45.8752L45.8736 10.7907Z" fill="white"/>
<path d="M77.9276 10.4178C82.9622 10.4178 86.3185 13.7404 86.3185 18.5886C86.3185 23.4369 82.9622 26.7595 77.9276 26.7595C72.8931 26.7595 69.5732 23.4369 69.5732 18.5886C69.5732 13.7404 72.9296 10.4178 77.9276 10.4178ZM77.9276 23.4693C80.9344 23.4693 82.9272 21.5028 82.9272 18.5871C82.9272 15.6714 80.9344 13.7049 77.9276 13.7049C74.9209 13.7049 72.963 15.6714 72.963 18.5871C72.963 21.5028 74.9558 23.4693 77.9276 23.4693Z" fill="white"/>
<path d="M95.9506 26.1138C95.8457 26.3172 95.6709 26.4189 95.4612 26.4189H92.4544C92.2446 26.4189 92.0349 26.3172 91.9649 26.1138L85.7766 11.2299C85.6718 10.9587 85.7766 10.7892 86.0913 10.7892H89.098C89.2729 10.7892 89.4127 10.8909 89.4826 11.0265L93.9578 22.5523L98.398 11.0604C98.4679 10.8909 98.6427 10.7892 98.8175 10.7892H101.823C102.102 10.7892 102.207 10.9587 102.102 11.2299L95.949 26.1138H95.9506Z" fill="white"/>
<path d="M106.584 26.0799C106.584 26.2833 106.444 26.4189 106.234 26.4189H103.507C103.332 26.4189 103.193 26.2833 103.193 26.0799V11.1298C103.193 10.9263 103.332 10.7907 103.542 10.7907H106.234C106.444 10.7907 106.584 10.9263 106.584 11.1298V26.0799Z" fill="white"/>
<path d="M117.185 23.6388C118.933 23.6388 120.332 23.0624 121.206 22.2487C121.311 22.147 121.416 22.1131 121.521 22.1131C121.626 22.1131 121.73 22.147 121.8 22.2148L123.548 23.9439C123.688 24.0796 123.688 24.283 123.548 24.4186C122.08 25.9782 119.808 26.758 117.047 26.758C111.908 26.758 108.448 23.4693 108.448 18.621C108.448 13.7727 111.804 10.4856 116.802 10.4856C121.8 10.4856 125.158 13.537 125.123 19.6381C125.123 19.8755 125.018 19.9433 124.774 19.9433H112.014C112.504 22.1809 114.392 23.6388 117.187 23.6388H117.185ZM121.591 17.4005C121.171 15.1289 119.423 13.6387 116.801 13.6387C114.179 13.6387 112.396 15.1304 111.976 17.4005H121.591Z" fill="white"/>
<path d="M131.742 32.5047V11.1297C131.742 10.9263 131.882 10.7907 132.127 10.7907H133.98C134.225 10.7907 134.364 10.9263 134.434 11.1297L134.924 13.1979C136.113 11.4688 138.036 10.4517 140.553 10.4517C145.411 10.4517 148.662 13.7743 148.662 18.6225C148.662 23.4708 145.411 26.7934 140.553 26.7934C138.175 26.7934 136.322 25.878 135.169 24.3184V32.5062C135.169 32.7096 135.029 32.8452 134.819 32.8452H132.092C131.882 32.8452 131.742 32.7096 131.742 32.5062V32.5047ZM140.271 23.5047C143.278 23.5047 145.271 21.5383 145.271 18.6225C145.271 15.7068 143.278 13.7403 140.271 13.7403C137.265 13.7403 135.202 15.7068 135.202 18.6225C135.202 21.5383 137.3 23.5047 140.271 23.5047Z" fill="white"/>
<path d="M163.874 11.0959C163.944 10.9263 164.049 10.7907 164.259 10.7907H166.426C166.601 10.7907 166.741 10.9263 166.741 11.1298V26.0799C166.741 26.2833 166.601 26.4189 166.391 26.4189H164.224C164.014 26.4189 163.909 26.2833 163.839 26.1138L163.385 24.0796C162.196 25.7748 160.308 26.758 157.827 26.758C152.968 26.7919 149.718 23.4693 149.718 18.621C149.718 13.7727 152.969 10.5195 157.827 10.4856C160.31 10.4856 162.196 11.4688 163.385 13.164L163.874 11.0959ZM158.07 23.5032C161.077 23.5032 163.105 21.5707 163.175 18.621C163.105 15.7068 161.077 13.7727 158.07 13.7727C155.064 13.7727 153.071 15.7053 153.071 18.621C153.071 21.5368 155.099 23.5032 158.07 23.5032Z" fill="white"/>
<path d="M176.065 13.8082C174.771 13.8082 173.652 14.6558 173.025 15.978V26.0799C173.025 26.2833 172.92 26.4189 172.675 26.4189H169.948C169.738 26.4189 169.598 26.2833 169.598 26.0799V11.0959C169.598 10.8924 169.738 10.7907 169.948 10.7907H171.836C172.081 10.7907 172.221 10.9263 172.256 11.0959L172.57 12.2825C173.584 11.2315 175.018 10.4856 176.731 10.4856C177.78 10.4856 178.724 10.7568 179.213 10.8909C179.423 10.9248 179.528 11.0943 179.458 11.2977L178.758 14.044C178.724 14.1796 178.584 14.2813 178.479 14.2813C178.409 14.2813 178.374 14.2813 178.304 14.2474C177.849 14.0779 176.905 13.8066 176.066 13.8066L176.065 13.8082Z" fill="white"/>
<path d="M193.711 10.8246C194.131 10.8246 194.166 10.9941 193.921 11.2654L187.558 18.114L195.038 25.9782C195.318 26.2833 195.248 26.4189 194.828 26.4189H191.157C190.983 26.4189 190.808 26.385 190.703 26.2494L183.955 19.0617V26.1138C183.955 26.2833 183.815 26.4189 183.606 26.4189H180.879C180.669 26.4189 180.529 26.2833 180.529 26.1138V11.0958C180.529 10.9263 180.669 10.7907 180.879 10.7907H183.606C183.815 10.7907 183.955 10.9263 183.955 11.0958V17.2987L189.583 10.9941C189.687 10.8924 189.827 10.8246 189.967 10.8246H193.708H193.711Z" fill="white"/>
<path d="M15.8871 5.09792L17.0583 4.44296C17.2347 4.34433 17.4509 4.34433 17.6273 4.44296L25.6876 8.95527C25.8958 9.0724 25.9276 9.35133 25.7496 9.50852L21.071 13.6525C20.9026 13.8005 20.6372 13.7604 20.5228 13.5708L15.7552 5.5695C15.6567 5.4046 15.7155 5.19347 15.8855 5.09792H15.8871Z" fill="white"/>
<path d="M4.50537 21.0944V11.6707C4.50537 11.5474 4.57371 11.4333 4.68336 11.3717L13.0679 6.67599C13.238 6.58045 13.4557 6.63747 13.5542 6.80236L18.6778 15.4078C18.762 15.548 18.7334 15.7253 18.6094 15.8347L10.9893 22.5862C10.9035 22.6617 10.7874 22.6925 10.6746 22.6679L4.78666 21.4304C4.62297 21.3965 4.50696 21.2562 4.50696 21.0929L4.50537 21.0944Z" fill="white"/>
<path d="M24.8486 28.7922L17.6257 32.7728C17.4509 32.8684 17.238 32.8684 17.0632 32.7728L4.68495 25.9489C4.57371 25.8872 4.50537 25.7732 4.50537 25.6484V24.3292C4.50537 24.1088 4.71514 23.9455 4.93604 23.9917L24.7485 28.1542C25.0679 28.2204 25.1331 28.635 24.8486 28.7906V28.7922Z" fill="white"/>
<path d="M30.1851 11.6707V25.6484C30.1851 25.7732 30.1168 25.8872 30.0055 25.9489L29.1648 26.4112C29.0425 26.4775 28.901 26.4991 28.7644 26.4713L14.5745 23.4924C14.2916 23.4338 14.1963 23.0902 14.4092 22.9006L28.232 10.6582C28.3464 10.5565 28.5149 10.5395 28.6499 10.6135L30.0071 11.3717C30.1168 11.4334 30.1851 11.5474 30.1851 11.6707Z" fill="white"/>
<path d="M44.3368 39.1776C44.3368 39.2315 44.3003 39.267 44.2446 39.267H43.5216C43.4659 39.267 43.4294 39.2315 43.4294 39.1776V35.9336H42.8001C42.7444 35.9336 42.7079 35.8981 42.7079 35.8442V35.2247C42.7079 35.1707 42.7444 35.1353 42.8001 35.1353H43.4294L43.4198 34.2723C43.4198 33.1766 43.9475 32.6819 44.7627 32.6819C45.2824 32.6819 45.6797 32.9069 45.81 33.0055C45.8465 33.0317 45.8561 33.0872 45.8291 33.1319L45.5414 33.699C45.5223 33.7252 45.4953 33.7437 45.4667 33.7437C45.4477 33.7437 45.4302 33.7344 45.4111 33.7252C45.2903 33.6528 45.0964 33.5449 44.8644 33.5449C44.5498 33.5449 44.3368 33.7699 44.3273 34.354L44.3368 35.1353H45.338C45.3936 35.1353 45.4302 35.1707 45.4302 35.2247V35.8442C45.4302 35.8981 45.3936 35.9336 45.338 35.9336H44.3368V39.1776Z" fill="white"/>
<path d="M49.3205 38.6213C49.0233 39.0805 48.5322 39.3671 47.8648 39.3671C46.8827 39.3671 46.2247 38.7291 46.2247 37.5163V35.2247C46.2247 35.1708 46.2613 35.1353 46.3074 35.1353H47.0305C47.0861 35.1353 47.1226 35.1708 47.1226 35.2247V37.3992C47.1226 38.2082 47.5024 38.5319 48.1143 38.5319C48.7261 38.5319 49.2362 38.011 49.2728 37.1387V35.2247C49.2728 35.1708 49.3094 35.1353 49.365 35.1353H50.0881C50.1437 35.1353 50.1802 35.1615 50.1802 35.2154V39.1791C50.1802 39.2331 50.1437 39.2685 50.0881 39.2685H49.5318C49.4762 39.2685 49.4397 39.2331 49.4301 39.1884L49.3189 38.6213H49.3205Z" fill="white"/>
<path d="M52.2733 39.1776C52.2733 39.2315 52.2367 39.267 52.1811 39.267H51.458C51.4119 39.267 51.3738 39.2315 51.3738 39.1776V32.8684C51.3738 32.8144 51.4008 32.779 51.458 32.779H52.1811C52.2367 32.779 52.2733 32.8144 52.2733 32.8684V39.1776Z" fill="white"/>
<path d="M54.3948 39.1776C54.3948 39.2315 54.3583 39.267 54.3027 39.267H53.5796C53.5335 39.267 53.4954 39.2315 53.4954 39.1776V32.8684C53.4954 32.8144 53.5224 32.779 53.5796 32.779H54.3027C54.3583 32.779 54.3948 32.8144 54.3948 32.8684V39.1776Z" fill="white"/>
<path d="M60.0634 39.1869C60.0348 39.2408 59.9887 39.267 59.9331 39.267H59.1369C59.0813 39.267 59.0256 39.2408 59.0066 39.1869L57.3665 35.2509C57.3395 35.18 57.3665 35.1338 57.4508 35.1338H58.2469C58.293 35.1338 58.3296 35.16 58.3486 35.197L59.5342 38.2437L60.7118 35.2062C60.7308 35.1615 60.7769 35.1338 60.823 35.1338H61.6192C61.6939 35.1338 61.7209 35.1785 61.6939 35.2509L60.0634 39.1869Z" fill="white"/>
<path d="M63.2578 39.1776C63.2578 39.2315 63.2212 39.267 63.1656 39.267H62.4425C62.3964 39.267 62.3583 39.2315 62.3583 39.1776V35.2139C62.3583 35.16 62.3948 35.1245 62.4504 35.1245H63.164C63.2196 35.1245 63.2562 35.16 63.2562 35.2139V39.1776H63.2578Z" fill="white"/>
<path d="M64.1652 37.2004C64.1652 35.9151 65.0265 35.0429 66.3153 35.0429C66.9462 35.0429 67.4278 35.2863 67.7329 35.6994V32.8591C67.7329 32.8052 67.779 32.779 67.8251 32.779H68.5481C68.6038 32.779 68.6403 32.8052 68.6403 32.8591V39.1761C68.6403 39.2392 68.6038 39.2654 68.5481 39.2654H68.038C67.9824 39.2654 67.9458 39.23 67.9363 39.1853L67.798 38.6367C67.4834 39.0944 66.9733 39.3548 66.3153 39.3548C65.0281 39.3548 64.1652 38.4841 64.1652 37.1988V37.2004ZM66.3805 35.9059C65.5923 35.9059 65.0646 36.4268 65.0646 37.2004C65.0646 37.974 65.5938 38.4934 66.3805 38.4934C67.1671 38.4934 67.7329 37.9817 67.7329 37.2004C67.7329 36.419 67.1767 35.9059 66.3805 35.9059Z" fill="white"/>
<path d="M71.8441 38.5303C72.3066 38.5303 72.6785 38.3778 72.9105 38.162C72.9375 38.1358 72.9661 38.125 72.9931 38.125C73.0201 38.125 73.0487 38.1343 73.0678 38.1512L73.5319 38.6105C73.5684 38.6459 73.5684 38.6999 73.5319 38.7368C73.1425 39.1499 72.5402 39.3564 71.8076 39.3564C70.4456 39.3564 69.5287 38.4856 69.5287 37.2004C69.5287 35.9151 70.4186 35.0428 71.744 35.0428C73.0694 35.0428 73.9593 35.8519 73.9498 37.4701C73.9498 37.5332 73.9228 37.5502 73.8576 37.5502H70.4758C70.6062 38.1435 71.1068 38.5303 71.8473 38.5303H71.8441ZM73.0122 36.8767C72.9009 36.2742 72.4385 35.8781 71.7424 35.8781C71.0464 35.8781 70.5744 36.2742 70.4631 36.8767H73.0122Z" fill="white"/>
<path d="M76.7706 35.0259C78.1055 35.0259 78.9939 35.9058 78.9939 37.1911C78.9939 38.4764 78.104 39.3563 76.7706 39.3563C75.4373 39.3563 74.5553 38.4764 74.5553 37.1911C74.5553 35.9058 75.4452 35.0259 76.7706 35.0259ZM76.7706 38.4856C77.5668 38.4856 78.096 37.9647 78.096 37.1927C78.096 36.4206 77.5684 35.8981 76.7706 35.8981C75.9729 35.8981 75.4548 36.419 75.4548 37.1927C75.4548 37.9663 75.984 38.4856 76.7706 38.4856Z" fill="white"/>
<path d="M82.1976 41.2272V35.2154C82.1976 35.1615 82.2342 35.1261 82.2993 35.1261H82.7904C82.8556 35.1261 82.8921 35.1615 82.9112 35.2154L83.0415 35.7641C83.3562 35.3048 83.8663 35.0367 84.5337 35.0367C85.821 35.0367 86.6839 35.9182 86.6839 37.2019C86.6839 38.4856 85.8226 39.3671 84.5337 39.3671C83.9028 39.3671 83.4118 39.1237 83.1067 38.7106V41.2272C83.1067 41.2812 83.0701 41.3166 83.0145 41.3166H82.2914C82.2358 41.3166 82.1992 41.2812 82.1992 41.2272H82.1976ZM84.4591 38.4949C85.2552 38.4949 85.7844 37.974 85.7844 37.2019C85.7844 36.4298 85.2568 35.9074 84.4591 35.9074C83.6613 35.9074 83.1146 36.4283 83.1146 37.2019C83.1146 37.9755 83.6708 38.4949 84.4591 38.4949Z" fill="white"/>
<path d="M89.2822 35.9244C88.939 35.9244 88.6434 36.1493 88.4765 36.4992V39.1776C88.4765 39.2315 88.4495 39.267 88.3843 39.267H87.6613C87.6056 39.267 87.5691 39.2315 87.5691 39.1776V35.2139C87.5691 35.16 87.6056 35.1338 87.6613 35.1338H88.1619C88.227 35.1338 88.2636 35.1692 88.2731 35.2139L88.3557 35.519C88.6243 35.2401 89.0041 35.0428 89.4586 35.0428C89.7367 35.0428 89.9862 35.1153 90.1166 35.1507C90.1722 35.16 90.2008 35.2047 90.1817 35.2586L89.9958 35.986C89.9862 36.0214 89.9497 36.0492 89.9211 36.0492C89.902 36.0492 89.8941 36.0492 89.875 36.0399C89.7542 35.9952 89.5047 35.9228 89.2822 35.9228V35.9244Z" fill="white"/>
<path d="M92.7833 35.0259C94.1182 35.0259 95.0066 35.9058 95.0066 37.1911C95.0066 38.4764 94.1167 39.3563 92.7833 39.3563C91.45 39.3563 90.568 38.4764 90.568 37.1911C90.568 35.9058 91.4579 35.0259 92.7833 35.0259ZM92.7833 38.4856C93.5795 38.4856 94.1087 37.9647 94.1087 37.1927C94.1087 36.4206 93.5811 35.8981 92.7833 35.8981C91.9856 35.8981 91.4675 36.419 91.4675 37.1927C91.4675 37.9663 91.9967 38.4856 92.7833 38.4856Z" fill="white"/>
<path d="M95.6168 37.2004C95.6168 35.9151 96.4782 35.0429 97.767 35.0429C98.3979 35.0429 98.8794 35.2863 99.1846 35.6994V32.8591C99.1846 32.8052 99.2306 32.779 99.2767 32.779H99.9998C100.055 32.779 100.092 32.8052 100.092 32.8591V39.1761C100.092 39.2392 100.055 39.2654 99.9998 39.2654H99.4897C99.4341 39.2654 99.3975 39.23 99.388 39.1853L99.2497 38.6367C98.9351 39.0944 98.4249 39.3548 97.767 39.3548C96.4798 39.3548 95.6168 38.4841 95.6168 37.1988V37.2004ZM97.8322 35.9059C97.0439 35.9059 96.5163 36.4268 96.5163 37.2004C96.5163 37.974 97.0455 38.4934 97.8322 38.4934C98.6188 38.4934 99.1846 37.9817 99.1846 37.2004C99.1846 36.419 98.6283 35.9059 97.8322 35.9059Z" fill="white"/>
<path d="M104.334 38.6213C104.036 39.0805 103.545 39.3671 102.878 39.3671C101.896 39.3671 101.238 38.7291 101.238 37.5163V35.2247C101.238 35.1708 101.274 35.1353 101.32 35.1353H102.044C102.099 35.1353 102.136 35.1708 102.136 35.2247V37.3992C102.136 38.2082 102.516 38.5319 103.127 38.5319C103.739 38.5319 104.249 38.011 104.286 37.1387V35.2247C104.286 35.1708 104.322 35.1353 104.378 35.1353H105.101C105.157 35.1353 105.193 35.1615 105.193 35.2154V39.1791C105.193 39.2331 105.157 39.2685 105.101 39.2685H104.545C104.489 39.2685 104.453 39.2331 104.443 39.1884L104.332 38.6213H104.334Z" fill="white"/>
<path d="M108.297 39.3671C106.972 39.3671 106.082 38.4856 106.082 37.2019C106.082 35.7641 107.185 35.0444 108.287 35.0367C109.057 35.0367 109.734 35.3326 110.16 35.9629C110.196 35.9983 110.187 36.0523 110.15 36.0877L109.603 36.5192C109.584 36.5377 109.567 36.5454 109.538 36.5454C109.51 36.5454 109.483 36.5269 109.456 36.4915C109.204 36.1324 108.807 35.9166 108.297 35.9166C107.501 35.9166 106.972 36.4283 106.972 37.2019C106.972 37.9755 107.499 38.4949 108.297 38.4949C108.863 38.4949 109.233 38.2344 109.446 37.9386C109.473 37.9031 109.502 37.8939 109.538 37.8939C109.557 37.8939 109.584 37.8939 109.603 37.9124L110.104 38.3608C110.14 38.3978 110.15 38.4517 110.123 38.4872C109.743 39.0435 109.114 39.3687 108.297 39.3687V39.3671Z" fill="white"/>
<path d="M112.604 38.4671C112.753 38.4671 112.918 38.3592 112.993 38.3053C113.012 38.2884 113.03 38.2884 113.049 38.2884C113.085 38.2884 113.104 38.3053 113.123 38.3238L113.401 38.9171C113.428 38.9711 113.42 39.025 113.374 39.0512C113.115 39.2485 112.79 39.3471 112.465 39.3471C111.715 39.3471 111.289 38.817 111.297 37.8908V35.932H110.676C110.62 35.932 110.584 35.8966 110.584 35.8426V35.2139C110.584 35.1692 110.62 35.1337 110.676 35.1337H111.297L111.307 33.7945C111.307 33.7406 111.343 33.7036 111.389 33.7036H112.103C112.159 33.7036 112.195 33.7406 112.195 33.7945V35.1337H113.141C113.196 35.1337 113.233 35.1692 113.233 35.2139V35.8426C113.233 35.8966 113.196 35.932 113.141 35.932H112.195V37.5317C112.195 38.2498 112.306 38.4656 112.604 38.4656V38.4671Z" fill="white"/>
<path d="M114.973 39.1776C114.973 39.2315 114.937 39.267 114.881 39.267H114.158C114.112 39.267 114.074 39.2315 114.074 39.1776V35.2139C114.074 35.16 114.11 35.1245 114.166 35.1245H114.879C114.935 35.1245 114.972 35.16 114.972 35.2139V39.1776H114.973Z" fill="white"/>
<path d="M118.096 35.0259C119.431 35.0259 120.319 35.9058 120.319 37.1911C120.319 38.4764 119.429 39.3563 118.096 39.3563C116.763 39.3563 115.881 38.4764 115.881 37.1911C115.881 35.9058 116.771 35.0259 118.096 35.0259ZM118.096 38.4856C118.892 38.4856 119.421 37.9647 119.421 37.1927C119.421 36.4206 118.894 35.8981 118.096 35.8981C117.298 35.8981 116.78 36.419 116.78 37.1927C116.78 37.9663 117.309 38.4856 118.096 38.4856Z" fill="white"/>
<path d="M121.206 35.2154C121.206 35.1615 121.242 35.126 121.298 35.126H121.854C121.91 35.126 121.946 35.1615 121.956 35.2154L122.067 35.7718C122.336 35.3233 122.8 35.0259 123.475 35.0259C124.457 35.0351 125.125 35.6639 125.125 36.8767L125.134 39.1776C125.134 39.2315 125.098 39.267 125.042 39.267H124.319C124.264 39.267 124.227 39.2315 124.227 39.1776V37.0016C124.227 36.2372 123.838 35.9058 123.273 35.9058C122.504 35.9058 122.144 36.5978 122.115 37.2635V39.1776C122.115 39.2315 122.078 39.267 122.023 39.267H121.3C121.244 39.267 121.208 39.2315 121.208 39.1776V35.2139L121.206 35.2154Z" fill="white"/>
</svg>
