<svg width="114" height="33" viewBox="0 0 114 33" fill="none" xmlns="http://www.w3.org/2000/svg">
<path d="M12.9831 4.485L10.7856 2.16163L10.7733 2.14919L10.3662 1.71687L10.3601 1.71064C9.25526 0.64849 7.79688 0 6.1962 0C5.73559 0 5.29179 0.0544294 4.86023 0.157071C2.07815 0.804001 0 3.44617 0 6.6031C0 9.74291 2.04906 12.3664 4.80208 13.0382C5.25046 13.1471 5.71719 13.2062 6.1962 13.2062C7.55969 13.2062 8.89258 12.7692 9.84594 11.9403C10.2056 11.6262 11.1636 10.5531 11.1636 10.5531L11.1697 10.5469L12.9295 8.68697L15.2801 11.1177L15.7407 11.592C15.7713 11.6215 15.8004 11.6464 15.8294 11.6759C16.9052 12.6308 18.2932 13.2062 19.799 13.2062C20.2474 13.2062 20.6851 13.158 21.1044 13.0616C23.9048 12.4255 26.0013 9.77868 26.0013 6.6031C26.0013 3.41041 23.8696 0.738686 21.034 0.125968C20.6315 0.0419893 20.2183 4.66526e-10 19.799 4.66526e-10C18.2167 4.66526e-10 16.743 0.615833 15.6641 1.68732C15.554 1.79618 15.3397 2.02012 15.2326 2.13053C14.6695 2.71993 12.9831 4.485 12.9831 4.485ZM9.23229 8.57811C8.85891 8.95601 8.42277 9.43033 7.98509 9.71337C7.46633 10.0555 6.85114 10.253 6.1962 10.253C4.30472 10.253 2.77596 8.6201 2.77596 6.6031C2.77596 4.59231 4.30472 2.95942 6.1962 2.95942C6.90471 2.95942 7.55969 3.18802 8.10296 3.58458H8.10908C8.45798 3.83651 8.92471 4.21441 9.23229 4.53166C9.87503 5.18015 10.9631 6.59688 10.9631 6.59688C10.9631 6.59688 9.74035 8.06181 9.23229 8.57811ZM19.8052 10.253C19.1502 10.253 18.535 10.0555 18.0147 9.71337C17.5786 9.43033 17.1409 8.95601 16.769 8.57811C16.261 8.06181 15.0383 6.59688 15.0383 6.59688C15.0383 6.59688 16.1248 5.18015 16.769 4.53166C17.0766 4.21441 17.5433 3.83651 17.8908 3.58458H17.8969C18.4401 3.18802 19.0966 2.95942 19.8052 2.95942C21.6951 2.95942 23.2254 4.59231 23.2254 6.6031C23.2254 8.6201 21.6951 10.253 19.8052 10.253Z" fill="white"/>
<path d="M35.2688 0.000496104L39.0018 9.28678H39.1617L42.8947 0.000496104H46.4291V13.8221H43.6487V4.82555H43.5373L40.0287 13.7546H38.1348L34.6262 4.79262H34.5148V13.8221H31.7344V0.000496104H35.2688Z" fill="white"/>
<path d="M49.3887 3.45606H52.1223V5.26525H52.2288C52.5985 3.98285 53.5318 3.3079 54.6717 3.3079C54.9559 3.3079 55.3063 3.34741 55.5582 3.40832V5.95995C55.2934 5.8727 54.7573 5.8052 54.3666 5.8052C53.1217 5.8052 52.2078 6.68263 52.2078 7.95844V13.8223H49.3887V3.45606Z" fill="white"/>
<path d="M64.4774 0.000496104H73.6129V2.41055H67.3433V5.70297H73.143V8.11303H67.3433V11.4137H73.6387V13.8221H64.4774V0.000496104Z" fill="white"/>
<path d="M76.5531 1.45163C76.5531 0.654864 77.2426 0.00131876 78.0758 0.00131876C78.917 0.00131876 79.6048 0.654864 79.6048 1.45163C79.6048 2.25498 78.917 2.91017 78.0758 2.91017C77.2426 2.91017 76.5531 2.25498 76.5531 1.45163ZM76.6597 4.39176H79.4805V13.8229H76.6597V4.39176Z" fill="white"/>
<path d="M55.5582 12.365C55.5582 11.5683 56.246 10.9147 57.0808 10.9147C57.922 10.9147 58.6098 11.5683 58.6098 12.365C58.6098 13.1684 57.922 13.8236 57.0808 13.8236C56.246 13.8236 55.5582 13.1684 55.5582 12.365Z" fill="white"/>
<path d="M82.8308 15.0373L85.4384 14.6801C85.6708 15.2398 86.299 15.7929 87.5438 15.7929C88.7677 15.7929 89.6622 15.2398 89.6622 13.8833V11.9869H89.5427C89.173 12.8446 88.2655 13.6743 86.6428 13.6743C84.3533 13.6743 82.5191 12.0676 82.5191 8.61875C82.5191 5.08927 84.4067 3.32123 86.6364 3.32123C88.3383 3.32123 89.1649 4.35341 89.5427 5.19791H89.6492V3.45622H92.449V13.9245C92.449 16.509 90.3839 17.8589 87.4776 17.8589C84.7376 17.8589 83.1682 16.6029 82.8308 15.0373ZM89.6752 8.60557C89.6752 6.78981 88.9082 5.60947 87.5373 5.60947C86.1407 5.60947 85.3996 6.84413 85.3996 8.60557C85.3996 10.395 86.1536 11.5144 87.5373 11.5144C88.8937 11.5144 89.6752 10.4345 89.6752 8.60557Z" fill="white"/>
<path d="M98.1843 13.8227H95.3635V0.0011492H98.1051V5.28549H98.2246C98.688 4.064 99.7198 3.32156 101.262 3.32156C103.38 3.32156 104.785 4.79162 104.777 7.22144V13.8227H101.958V7.73505C101.964 6.45924 101.289 5.71021 100.144 5.71021C98.9916 5.71021 98.1907 6.49381 98.1843 7.82889V13.8227Z" fill="white"/>
<path d="M113.815 4.64396H111.902V10.6378C111.902 11.4329 112.293 11.6502 112.856 11.6502C113.121 11.6502 113.418 11.5827 113.557 11.5548L114.001 13.6948C113.717 13.7887 113.2 13.9368 112.472 13.9648C110.426 14.0521 109.068 13.0462 109.083 11.0148V4.64396H107.693V2.48414H109.083V0H111.902V2.48414H113.815V4.64396Z" fill="white"/>
<path d="M19.7617 30.593V22.3224H23.0752C23.9434 22.3224 24.7029 22.4996 25.354 22.8541C26.0129 23.2007 26.5244 23.6851 26.8887 24.3073C27.253 24.9296 27.4352 25.6464 27.4352 26.4577C27.4352 27.269 27.253 27.9858 26.8887 28.608C26.5244 29.2303 26.0129 29.7186 25.354 30.0731C24.7029 30.4197 23.9434 30.593 23.0752 30.593H19.7617ZM20.6221 29.8368H23.0287C23.7496 29.8368 24.3735 29.695 24.9006 29.4115C25.4354 29.12 25.8501 28.7222 26.1446 28.2181C26.4392 27.7061 26.5864 27.1193 26.5864 26.4577C26.5864 25.7882 26.4392 25.2013 26.1446 24.6972C25.8501 24.1931 25.4354 23.7993 24.9006 23.5157C24.3735 23.2243 23.7496 23.0786 23.0287 23.0786H20.6221V29.8368Z" fill="white"/>
<path d="M31.7854 30.652C31.1499 30.652 30.5918 30.5181 30.1112 30.2503C29.6307 29.9746 29.2548 29.6005 28.9835 29.1279C28.7122 28.6474 28.5765 28.1 28.5765 27.4856C28.5765 26.8712 28.7044 26.3277 28.9602 25.8551C29.2237 25.3825 29.5803 25.0123 30.0298 24.7445C30.4872 24.4688 30.9987 24.331 31.5645 24.331C32.1381 24.331 32.6458 24.4649 33.0876 24.7327C33.5371 24.9926 33.8898 25.3628 34.1456 25.8433C34.4014 26.3159 34.5293 26.8633 34.5293 27.4856C34.5293 27.525 34.5254 27.5683 34.5176 27.6156C34.5176 27.6549 34.5176 27.6983 34.5176 27.7455H29.2044V27.1193H34.0758L33.7503 27.3674C33.7503 26.9185 33.6534 26.5207 33.4596 26.1741C33.2736 25.8197 33.0178 25.544 32.6923 25.3471C32.3668 25.1501 31.9908 25.0517 31.5645 25.0517C31.146 25.0517 30.7701 25.1501 30.4368 25.3471C30.1035 25.544 29.8438 25.8197 29.6578 26.1741C29.4718 26.5286 29.3788 26.9342 29.3788 27.3911V27.521C29.3788 27.9936 29.4795 28.4111 29.6811 28.7734C29.8903 29.1279 30.1771 29.4075 30.5414 29.6123C30.9135 29.8092 31.3359 29.9077 31.8087 29.9077C32.1807 29.9077 32.5257 29.8407 32.8434 29.7068C33.169 29.5729 33.448 29.3681 33.6805 29.0924L34.1456 29.6359C33.8743 29.9668 33.5333 30.2188 33.1225 30.3921C32.7194 30.5654 32.2737 30.652 31.7854 30.652Z" fill="white"/>
<path d="M37.6655 30.593L34.9565 24.39H35.8169L38.305 30.144H37.898L40.421 24.39H41.2348L38.5142 30.593H37.6655Z" fill="white"/>
<path d="M44.8197 30.652C44.1842 30.652 43.6261 30.5181 43.1455 30.2503C42.665 29.9746 42.2891 29.6005 42.0178 29.1279C41.7465 28.6474 41.6109 28.1 41.6109 27.4856C41.6109 26.8712 41.7387 26.3277 41.9945 25.8551C42.2581 25.3825 42.6146 25.0123 43.0642 24.7445C43.5215 24.4688 44.033 24.331 44.5988 24.331C45.1724 24.331 45.6801 24.4649 46.1219 24.7327C46.5715 24.9926 46.9241 25.3628 47.1799 25.8433C47.4357 26.3159 47.5636 26.8633 47.5636 27.4856C47.5636 27.525 47.5597 27.5683 47.552 27.6156C47.552 27.6549 47.552 27.6983 47.552 27.7455H42.2387V27.1193H47.1101L46.7846 27.3674C46.7846 26.9185 46.6877 26.5207 46.4939 26.1741C46.3079 25.8197 46.0521 25.544 45.7266 25.3471C45.4011 25.1501 45.0251 25.0517 44.5988 25.0517C44.1803 25.0517 43.8044 25.1501 43.4711 25.3471C43.1378 25.544 42.8781 25.8197 42.6921 26.1741C42.5061 26.5286 42.4131 26.9342 42.4131 27.3911V27.521C42.4131 27.9936 42.5138 28.4111 42.7154 28.7734C42.9246 29.1279 43.2114 29.4075 43.5757 29.6123C43.9478 29.8092 44.3702 29.9077 44.843 29.9077C45.215 29.9077 45.56 29.8407 45.8777 29.7068C46.2033 29.5729 46.4823 29.3681 46.7148 29.0924L47.1799 29.6359C46.9086 29.9668 46.5676 30.2188 46.1568 30.3921C45.7537 30.5654 45.3081 30.652 44.8197 30.652Z" fill="white"/>
<path d="M49.2438 30.593V21.8262H50.0693V30.593H49.2438Z" fill="white"/>
<path d="M54.8542 30.652C54.2651 30.652 53.7341 30.5181 53.2613 30.2503C52.7963 29.9746 52.4281 29.6005 52.1568 29.1279C51.8855 28.6474 51.7499 28.1 51.7499 27.4856C51.7499 26.8633 51.8855 26.3159 52.1568 25.8433C52.4281 25.3707 52.7963 25.0005 53.2613 24.7327C53.7264 24.4649 54.2573 24.331 54.8542 24.331C55.4587 24.331 55.9935 24.4649 56.4586 24.7327C56.9314 25.0005 57.2996 25.3707 57.5631 25.8433C57.8344 26.3159 57.97 26.8633 57.97 27.4856C57.97 28.1 57.8344 28.6474 57.5631 29.1279C57.2996 29.6005 56.9314 29.9746 56.4586 30.2503C55.9858 30.5181 55.451 30.652 54.8542 30.652ZM54.8542 29.9077C55.296 29.9077 55.6874 29.8092 56.0284 29.6123C56.3695 29.4075 56.6369 29.124 56.8306 28.7616C57.0322 28.3914 57.1329 27.9661 57.1329 27.4856C57.1329 26.9972 57.0322 26.5719 56.8306 26.2096C56.6369 25.8472 56.3695 25.5676 56.0284 25.3707C55.6874 25.1659 55.2998 25.0635 54.8658 25.0635C54.4317 25.0635 54.0442 25.1659 53.7031 25.3707C53.3621 25.5676 53.0908 25.8472 52.8893 26.2096C52.6878 26.5719 52.587 26.9972 52.587 27.4856C52.587 27.9661 52.6878 28.3914 52.8893 28.7616C53.0908 29.124 53.3621 29.4075 53.7031 29.6123C54.0442 29.8092 54.4279 29.9077 54.8542 29.9077Z" fill="white"/>
<path d="M62.8061 30.652C62.279 30.652 61.8023 30.53 61.376 30.2858C60.9497 30.0337 60.6087 29.6753 60.3529 29.2106C60.1049 28.738 59.9809 28.163 59.9809 27.4856C59.9809 26.8082 60.1049 26.2371 60.3529 25.7724C60.6009 25.2998 60.9381 24.9414 61.3644 24.6972C61.7907 24.4531 62.2713 24.331 62.8061 24.331C63.3874 24.331 63.9067 24.4649 64.364 24.7327C64.8291 24.9926 65.1934 25.3628 65.4569 25.8433C65.7204 26.3159 65.8522 26.8633 65.8522 27.4856C65.8522 28.1157 65.7204 28.6671 65.4569 29.1397C65.1934 29.6123 64.8291 29.9825 64.364 30.2503C63.9067 30.5181 63.3874 30.652 62.8061 30.652ZM59.6553 32.8851V24.39H60.4459V26.2568L60.3645 27.4974L60.4808 28.7498V32.8851H59.6553ZM62.748 29.9077C63.182 29.9077 63.5695 29.8092 63.9106 29.6123C64.2516 29.4075 64.5229 29.124 64.7244 28.7616C64.926 28.3914 65.0267 27.9661 65.0267 27.4856C65.0267 27.0051 64.926 26.5837 64.7244 26.2214C64.5229 25.8591 64.2516 25.5755 63.9106 25.3707C63.5695 25.1659 63.182 25.0635 62.748 25.0635C62.3139 25.0635 61.9225 25.1659 61.5737 25.3707C61.2326 25.5755 60.9614 25.8591 60.7598 26.2214C60.5661 26.5837 60.4692 27.0051 60.4692 27.4856C60.4692 27.9661 60.5661 28.3914 60.7598 28.7616C60.9614 29.124 61.2326 29.4075 61.5737 29.6123C61.9225 29.8092 62.3139 29.9077 62.748 29.9077Z" fill="white"/>
<path d="M75.1619 24.331C75.6579 24.331 76.0881 24.4294 76.4524 24.6263C76.8245 24.8154 77.1112 25.1068 77.3128 25.5007C77.522 25.8945 77.6267 26.3907 77.6267 26.9894V30.593H76.8012V27.0721C76.8012 26.4183 76.6462 25.926 76.3362 25.5952C76.0339 25.2565 75.6037 25.0871 75.0456 25.0871C74.6271 25.0871 74.2628 25.1777 73.9527 25.3589C73.6504 25.5322 73.414 25.7882 73.2435 26.1269C73.0808 26.4577 72.9994 26.8594 72.9994 27.332V30.593H72.1739V27.0721C72.1739 26.4183 72.0189 25.926 71.7088 25.5952C71.3988 25.2565 70.9647 25.0871 70.4067 25.0871C69.9959 25.0871 69.6355 25.1777 69.3254 25.3589C69.0154 25.5322 68.7751 25.7882 68.6046 26.1269C68.4418 26.4577 68.3604 26.8594 68.3604 27.332V30.593H67.535V24.39H68.3255V26.0678L68.1977 25.7724C68.3837 25.3234 68.6821 24.9729 69.0929 24.7209C69.5114 24.4609 70.0036 24.331 70.5694 24.331C71.1663 24.331 71.674 24.4846 72.0925 24.7918C72.5111 25.0911 72.7823 25.544 72.9063 26.1505L72.5808 26.0205C72.7591 25.5164 73.073 25.1108 73.5226 24.8036C73.9799 24.4885 74.5263 24.331 75.1619 24.331Z" fill="white"/>
<path d="M82.458 30.652C81.8224 30.652 81.2644 30.5181 80.7838 30.2503C80.3032 29.9746 79.9273 29.6005 79.656 29.1279C79.3848 28.6474 79.2491 28.1 79.2491 27.4856C79.2491 26.8712 79.377 26.3277 79.6328 25.8551C79.8963 25.3825 80.2529 25.0123 80.7024 24.7445C81.1597 24.4688 81.6713 24.331 82.2371 24.331C82.8107 24.331 83.3184 24.4649 83.7602 24.7327C84.2097 24.9926 84.5624 25.3628 84.8182 25.8433C85.074 26.3159 85.2018 26.8633 85.2018 27.4856C85.2018 27.525 85.198 27.5683 85.1902 27.6156C85.1902 27.6549 85.1902 27.6983 85.1902 27.7455H79.8769V27.1193H84.7484L84.4229 27.3674C84.4229 26.9185 84.326 26.5207 84.1322 26.1741C83.9462 25.8197 83.6904 25.544 83.3649 25.3471C83.0393 25.1501 82.6634 25.0517 82.2371 25.0517C81.8186 25.0517 81.4426 25.1501 81.1093 25.3471C80.7761 25.544 80.5164 25.8197 80.3304 26.1741C80.1444 26.5286 80.0513 26.9342 80.0513 27.3911V27.521C80.0513 27.9936 80.1521 28.4111 80.3536 28.7734C80.5629 29.1279 80.8497 29.4075 81.214 29.6123C81.586 29.8092 82.0084 29.9077 82.4813 29.9077C82.8533 29.9077 83.1982 29.8407 83.516 29.7068C83.8416 29.5729 84.1206 29.3681 84.3531 29.0924L84.8182 29.6359C84.5469 29.9668 84.2058 30.2188 83.795 30.3921C83.392 30.5654 82.9463 30.652 82.458 30.652Z" fill="white"/>
<path d="M89.9979 24.331C90.494 24.331 90.928 24.4294 91.3001 24.6263C91.6799 24.8154 91.9744 25.1068 92.1837 25.5007C92.4007 25.8945 92.5092 26.3907 92.5092 26.9894V30.593H91.6838V27.0721C91.6838 26.4183 91.521 25.926 91.1954 25.5952C90.8776 25.2565 90.4281 25.0871 89.8468 25.0871C89.4127 25.0871 89.0329 25.1777 88.7074 25.3589C88.3896 25.5322 88.1416 25.7882 87.9633 26.1269C87.7928 26.4577 87.7075 26.8594 87.7075 27.332V30.593H86.882V24.39H87.6726V26.0914L87.5447 25.7724C87.7385 25.3234 88.0486 24.9729 88.4749 24.7209C88.9012 24.4609 89.4088 24.331 89.9979 24.331Z" fill="white"/>
<path d="M96.6689 30.652C96.0954 30.652 95.6536 30.4945 95.3435 30.1794C95.0335 29.8644 94.8785 29.4193 94.8785 28.8443V23.0195H95.7039V28.7971C95.7039 29.1594 95.7931 29.439 95.9714 29.6359C96.1574 29.8329 96.4209 29.9313 96.762 29.9313C97.1262 29.9313 97.4285 29.825 97.6688 29.6123L97.9595 30.2149C97.7967 30.3645 97.5991 30.4748 97.3665 30.5457C97.1417 30.6166 96.9092 30.652 96.6689 30.652ZM93.7856 25.0871V24.39H97.5642V25.0871H93.7856Z" fill="white"/>
</svg>
